<svg width="1500" height="900" viewBox="0 0 1500 900" fill="none" xmlns="http://www.w3.org/2000/svg">
<path d="M894.641 621.267H891.347V709.726H894.641V621.267Z" fill="#FF3184"/>
<path d="M1298.29 253H1295V341.459H1298.29V253Z" fill="#FF3184"/>
<path d="M1161 440.903H1157.43V485.547H1161V440.903Z" fill="#FF3184"/>
<path d="M854 97H850V188H854V97Z" fill="#FF3184"/>
<path d="M174.572 757H171V801.645H174.572V757Z" fill="#FF3184"/>
<path d="M152 649H148V768H152V649Z" fill="#FF3184"/>
<path d="M287.144 491.351H283.171V549.184H287.144V491.351Z" fill="#FF3184"/>
<path d="M1301.97 710H1298V767.833H1301.97V710Z" fill="#FF3184"/>
<path d="M1269 210H1265V297H1269V210Z" fill="#FF3184"/>
<path d="M120 65H116V167H120V65Z" fill="#FF3184"/>
<path d="M416.73 267.682H412.757V325.514H416.73V267.682Z" fill="#FF3184"/>
</svg>
